<svg width="616" height="223" viewBox="0 0 616 223" fill="none" xmlns="http://www.w3.org/2000/svg">
<rect width="616" height="223" fill="url(#paint0_linear)"/>
<rect opacity="0.01" x="561" y="119" width="47.811" height="47.811" fill="#DADADA"/>
<path d="M177.221 74.784L181.869 68.96C184.147 70.9387 186.331 72.3947 188.421 73.328C190.549 74.224 192.789 74.672 195.141 74.672C197.568 74.672 199.509 74.224 200.965 73.328C202.421 72.432 203.149 71.2373 203.149 69.744C203.149 68.4 202.645 67.3547 201.637 66.608C200.667 65.8613 199.024 65.3013 196.709 64.928L188.925 63.584C185.565 63.024 183.008 61.848 181.253 60.056C179.536 58.264 178.677 55.9493 178.677 53.112C178.677 49.4533 180.059 46.56 182.821 44.432C185.621 42.304 189.392 41.24 194.133 41.24C196.971 41.24 199.827 41.7253 202.701 42.696C205.613 43.6667 208.152 45.0107 210.317 46.728L205.949 52.776C203.859 51.1707 201.805 49.9947 199.789 49.248C197.773 48.464 195.701 48.072 193.573 48.072C191.408 48.072 189.672 48.4827 188.365 49.304C187.059 50.088 186.405 51.152 186.405 52.496C186.405 53.6907 186.835 54.624 187.693 55.296C188.552 55.968 189.989 56.4533 192.005 56.752L199.397 57.984C203.28 58.6187 206.192 59.8693 208.133 61.736C210.112 63.5653 211.101 65.992 211.101 69.016C211.101 72.824 209.589 75.8667 206.565 78.144C203.579 80.4213 199.584 81.56 194.581 81.56C191.445 81.56 188.347 80.9627 185.285 79.768C182.261 78.5733 179.573 76.912 177.221 74.784ZM211.51 48.968V41.8H246.006V48.968H232.846V81H224.726V48.968H211.51ZM287.299 61.4C287.299 64.2 286.758 66.8507 285.675 69.352C284.593 71.816 283.118 73.9627 281.251 75.792C279.422 77.584 277.238 79.0027 274.699 80.048C272.161 81.0933 269.435 81.616 266.523 81.616C263.649 81.616 260.942 81.0933 258.403 80.048C255.865 79.0027 253.662 77.584 251.795 75.792C249.966 73.9627 248.51 71.816 247.427 69.352C246.345 66.8507 245.803 64.2 245.803 61.4C245.803 58.6 246.345 55.968 247.427 53.504C248.51 51.0027 249.966 48.856 251.795 47.064C253.662 45.2347 255.865 43.7973 258.403 42.752C260.942 41.7067 263.649 41.184 266.523 41.184C269.435 41.184 272.161 41.7067 274.699 42.752C277.238 43.7973 279.422 45.2347 281.251 47.064C283.118 48.856 284.593 51.0027 285.675 53.504C286.758 55.968 287.299 58.6 287.299 61.4ZM278.955 61.4C278.955 59.5707 278.638 57.8907 278.003 56.36C277.369 54.792 276.491 53.448 275.371 52.328C274.289 51.1707 272.982 50.2747 271.451 49.64C269.921 48.968 268.278 48.632 266.523 48.632C264.769 48.632 263.126 48.968 261.595 49.64C260.102 50.2747 258.795 51.1707 257.675 52.328C256.593 53.448 255.734 54.792 255.099 56.36C254.465 57.8907 254.147 59.5707 254.147 61.4C254.147 63.192 254.465 64.872 255.099 66.44C255.734 68.008 256.593 69.3707 257.675 70.528C258.795 71.648 260.102 72.544 261.595 73.216C263.126 73.8507 264.769 74.168 266.523 74.168C268.278 74.168 269.921 73.8507 271.451 73.216C272.982 72.544 274.289 71.648 275.371 70.528C276.491 69.3707 277.369 68.008 278.003 66.44C278.638 64.872 278.955 63.192 278.955 61.4ZM292.03 81V41.8H311.182C313.161 41.8 314.971 42.0987 316.614 42.696C318.294 43.2933 319.731 44.1333 320.926 45.216C322.121 46.2613 323.054 47.5307 323.726 49.024C324.398 50.5173 324.734 52.16 324.734 53.952C324.734 56.416 324.025 58.6187 322.606 60.56C321.225 62.5013 319.377 63.9387 317.062 64.872L325.742 81H316.67L308.998 65.992H300.15V81H292.03ZM310.454 48.8H300.15V59.328H310.454C312.283 59.328 313.739 58.8427 314.822 57.872C315.942 56.9013 316.502 55.632 316.502 54.064C316.502 52.496 315.942 51.2267 314.822 50.256C313.739 49.2853 312.283 48.8 310.454 48.8ZM329.198 81V41.8H359.326V48.856H337.318V57.816H351.822V64.648H337.318V73.944H359.55V81H329.198ZM374.877 81V41.8H389.941C392.853 41.8 395.579 42.304 398.117 43.312C400.656 44.32 402.84 45.7013 404.669 47.456C406.536 49.2107 407.992 51.3013 409.037 53.728C410.12 56.1547 410.661 58.7493 410.661 61.512C410.661 64.2373 410.12 66.7947 409.037 69.184C407.992 71.5733 406.536 73.6453 404.669 75.4C402.84 77.1173 400.656 78.48 398.117 79.488C395.579 80.496 392.853 81 389.941 81H374.877ZM389.885 49.024H382.997V73.776H389.885C391.603 73.776 393.208 73.4587 394.701 72.824C396.232 72.1893 397.557 71.3307 398.677 70.248C399.797 69.128 400.675 67.8213 401.309 66.328C401.944 64.8347 402.261 63.2293 402.261 61.512C402.261 59.7573 401.944 58.1147 401.309 56.584C400.675 55.0533 399.797 53.728 398.677 52.608C397.557 51.488 396.232 50.6107 394.701 49.976C393.208 49.3413 391.603 49.024 389.885 49.024ZM415.381 81V41.8H445.509V48.856H423.501V57.816H438.005V64.648H423.501V73.944H445.733V81H415.381ZM177.14 154.056C179.194 154.056 181.116 153.627 182.908 152.768C184.7 151.909 186.287 150.677 187.668 149.072L192.988 154.336C191.122 156.539 188.732 158.293 185.82 159.6C182.946 160.907 179.978 161.56 176.916 161.56C173.967 161.56 171.204 161.037 168.628 159.992C166.09 158.947 163.887 157.528 162.02 155.736C160.154 153.944 158.679 151.816 157.596 149.352C156.551 146.888 156.028 144.237 156.028 141.4C156.028 138.563 156.57 135.912 157.652 133.448C158.735 130.947 160.21 128.8 162.076 127.008C163.943 125.216 166.146 123.797 168.684 122.752C171.26 121.707 174.004 121.184 176.916 121.184C180.052 121.184 183.095 121.856 186.044 123.2C188.994 124.507 191.383 126.28 193.212 128.52L187.724 133.952C186.343 132.235 184.719 130.928 182.852 130.032C180.986 129.099 179.007 128.632 176.916 128.632C175.162 128.632 173.5 128.968 171.932 129.64C170.402 130.275 169.076 131.171 167.956 132.328C166.836 133.448 165.959 134.792 165.324 136.36C164.69 137.891 164.372 139.571 164.372 141.4C164.372 143.192 164.69 144.872 165.324 146.44C165.996 147.971 166.892 149.296 168.012 150.416C169.17 151.536 170.514 152.432 172.044 153.104C173.612 153.739 175.311 154.056 177.14 154.056ZM193.144 161L209.272 121.8H218.68L234.584 161H225.792L221.816 150.696H205.632L201.6 161H193.144ZM208.152 144.2H219.352L213.808 129.752L208.152 144.2ZM258.127 158.2L244.575 132.16V161H237.071V121.8H247.487L258.239 142.856L268.991 121.8H279.407V161H271.735V132.216L258.127 158.2ZM285.614 161V121.8H293.734V161H285.614ZM296.672 154.784L301.32 148.96C303.597 150.939 305.781 152.395 307.872 153.328C310 154.224 312.24 154.672 314.592 154.672C317.019 154.672 318.96 154.224 320.416 153.328C321.872 152.432 322.6 151.237 322.6 149.744C322.6 148.4 322.096 147.355 321.088 146.608C320.117 145.861 318.475 145.301 316.16 144.928L308.376 143.584C305.016 143.024 302.459 141.848 300.704 140.056C298.987 138.264 298.128 135.949 298.128 133.112C298.128 129.453 299.509 126.56 302.272 124.432C305.072 122.304 308.843 121.24 313.584 121.24C316.421 121.24 319.277 121.725 322.152 122.696C325.064 123.667 327.603 125.011 329.768 126.728L325.4 132.776C323.309 131.171 321.256 129.995 319.24 129.248C317.224 128.464 315.152 128.072 313.024 128.072C310.859 128.072 309.123 128.483 307.816 129.304C306.509 130.088 305.856 131.152 305.856 132.496C305.856 133.691 306.285 134.624 307.144 135.296C308.003 135.968 309.44 136.453 311.456 136.752L318.848 137.984C322.731 138.619 325.643 139.869 327.584 141.736C329.563 143.565 330.552 145.992 330.552 149.016C330.552 152.824 329.04 155.867 326.016 158.144C323.029 160.421 319.035 161.56 314.032 161.56C310.896 161.56 307.797 160.963 304.736 159.768C301.712 158.573 299.024 156.912 296.672 154.784ZM334.575 161V121.8H364.703V128.856H342.695V137.816H357.199V144.648H342.695V153.944H364.927V161H334.575ZM367.308 128.968V121.8H401.804V128.968H388.644V161H380.524V128.968H367.308ZM394.111 161L410.239 121.8H419.647L435.551 161H426.759L422.783 150.696H406.599L402.567 161H394.111ZM409.119 144.2H420.319L414.775 129.752L409.119 144.2ZM435.773 154.784L440.421 148.96C442.698 150.939 444.882 152.395 446.973 153.328C449.101 154.224 451.341 154.672 453.693 154.672C456.12 154.672 458.061 154.224 459.517 153.328C460.973 152.432 461.701 151.237 461.701 149.744C461.701 148.4 461.197 147.355 460.189 146.608C459.218 145.861 457.576 145.301 455.261 144.928L447.477 143.584C444.117 143.024 441.56 141.848 439.805 140.056C438.088 138.264 437.229 135.949 437.229 133.112C437.229 129.453 438.61 126.56 441.373 124.432C444.173 122.304 447.944 121.24 452.685 121.24C455.522 121.24 458.378 121.725 461.253 122.696C464.165 123.667 466.704 125.011 468.869 126.728L464.501 132.776C462.41 131.171 460.357 129.995 458.341 129.248C456.325 128.464 454.253 128.072 452.125 128.072C449.96 128.072 448.224 128.483 446.917 129.304C445.61 130.088 444.957 131.152 444.957 132.496C444.957 133.691 445.386 134.624 446.245 135.296C447.104 135.968 448.541 136.453 450.557 136.752L457.949 137.984C461.832 138.619 464.744 139.869 466.685 141.736C468.664 143.565 469.653 145.992 469.653 149.016C469.653 152.824 468.141 155.867 465.117 158.144C462.13 160.421 458.136 161.56 453.133 161.56C449.997 161.56 446.898 160.963 443.837 159.768C440.813 158.573 438.125 156.912 435.773 154.784Z" fill="#252F3D" fill-opacity="0.89"/>
<defs>
<linearGradient id="paint0_linear" x1="308" y1="0" x2="308" y2="223" gradientUnits="userSpaceOnUse">
<stop offset="0.369792" stop-color="#F29C38"/>
<stop offset="0.885417" stop-color="#F29C38" stop-opacity="0"/>
</linearGradient>
</defs>
</svg>
